<?xml version="1.0" encoding="UTF-8" standalone="no"?><!DOCTYPE svg PUBLIC "-//W3C//DTD SVG 1.1//EN" "http://www.w3.org/Graphics/SVG/1.1/DTD/svg11.dtd"><svg width="100%" height="100%" viewBox="0 0 2678 1040" version="1.1" xmlns="http://www.w3.org/2000/svg" xmlns:xlink="http://www.w3.org/1999/xlink" xml:space="preserve" xmlns:serif="http://www.serif.com/" style="fill-rule:evenodd;clip-rule:evenodd;stroke-linejoin:round;stroke-miterlimit:2;"><g transform="matrix(1,0,0,1,-589.21342,-673.518708)"><text x="1607px" y="1003.681px" style="font-family:'HelveticaNeue-Medium', 'Helvetica Neue', sans-serif;font-weight:500;font-size:233.333px;fill:#231f20;">THE</text><text x="1607px" y="1338.581px" style="font-family:'HelveticaNeue-Medium', 'Helvetica Neue', sans-serif;font-weight:500;font-size:233.333px;fill:#231f20;">MICROSCOPIC</text><g transform="matrix(233.333333,0,0,233.333333,2778.566667,1673.481292)"></g><text x="1607px" y="1673.481px" style="font-family:'HelveticaNeue-Medium', 'Helvetica Neue', sans-serif;font-weight:500;font-size:233.333px;fill:#231f20;">MONT<tspan x="2277.133px 2432.767px " y="1673.481px 1673.481px ">AD</tspan>O</text></g><path d="M305.472,8.515c224.197,-51.493 458.855,135.881 523.69,418.167c64.835,282.286 -64.547,553.272 -288.745,604.766c-224.197,51.493 -458.855,-135.881 -523.69,-418.167c-64.835,-282.286 64.547,-553.272 288.745,-604.766Zm-124.91,255.091c-105.011,99.279 -81.658,294.76 52.117,436.257c133.775,141.497 327.638,175.773 432.649,76.494c105.011,-99.279 81.658,-294.76 -52.117,-436.257c-133.775,-141.497 -327.638,-175.773 -432.649,-76.494Z"/></svg>