<?xml version="1.0" encoding="utf-8"?>
<svg xmlns="http://www.w3.org/2000/svg" width="900" height="900" class="segno"><g transform="scale(20)"><path fill="#fff" d="M0 0h45v45h-45z"/><path class="qrline" stroke="#000" d="M4 4.5h7m4 0h3m5 0h4m4 0h2m1 0h7m-37 1h1m5 0h1m1 0h1m3 0h2m1 0h4m2 0h2m1 0h1m3 0h1m1 0h1m5 0h1m-37 1h1m1 0h3m1 0h1m6 0h2m3 0h1m2 0h1m1 0h2m3 0h1m1 0h1m1 0h3m1 0h1m-37 1h1m1 0h3m1 0h1m2 0h8m2 0h2m1 0h1m2 0h4m1 0h1m1 0h3m1 0h1m-37 1h1m1 0h3m1 0h1m2 0h2m1 0h1m1 0h3m1 0h2m1 0h3m3 0h1m2 0h1m1 0h3m1 0h1m-37 1h1m5 0h1m1 0h1m1 0h2m3 0h1m2 0h2m2 0h3m3 0h1m1 0h1m5 0h1m-37 1h7m1 0h1m1 0h1m1 0h1m1 0h1m1 0h1m1 0h1m1 0h1m1 0h1m1 0h1m1 0h1m1 0h1m1 0h7m-29 1h1m2 0h1m1 0h1m1 0h1m2 0h4m3 0h1m-22 1h4m1 0h1m1 0h1m1 0h1m1 0h2m1 0h1m1 0h6m1 0h2m1 0h2m3 0h1m-36 1h3m5 0h1m2 0h1m2 0h2m3 0h1m1 0h4m1 0h1m3 0h5m-35 1h4m2 0h3m1 0h4m3 0h1m4 0h1m1 0h4m1 0h1m1 0h1m1 0h1m-31 1h3m1 0h1m1 0h1m2 0h1m1 0h2m1 0h1m2 0h1m1 0h1m1 0h1m1 0h4m1 0h2m1 0h1m1 0h1m-36 1h1m4 0h6m1 0h1m1 0h2m3 0h1m2 0h1m5 0h3m2 0h1m1 0h1m-37 1h3m1 0h1m3 0h1m1 0h2m1 0h1m2 0h1m1 0h1m2 0h1m3 0h1m1 0h3m2 0h1m1 0h1m-35 1h3m1 0h3m1 0h1m1 0h2m2 0h3m3 0h3m1 0h2m1 0h1m3 0h1m1 0h3m-35 1h4m2 0h1m3 0h2m1 0h2m3 0h3m1 0h1m8 0h1m1 0h1m1 0h1m-37 1h1m1 0h3m1 0h1m3 0h1m1 0h1m1 0h4m1 0h1m1 0h1m2 0h1m2 0h1m1 0h3m1 0h4m-37 1h1m6 0h2m1 0h2m1 0h3m3 0h1m2 0h1m2 0h4m3 0h3m-30 1h2m4 0h3m2 0h4m1 0h2m3 0h2m1 0h1m3 0h1m-34 1h1m6 0h1m1 0h2m4 0h1m2 0h2m3 0h1m3 0h2m1 0h1m1 0h1m1 0h1m-33 1h2m2 0h2m2 0h2m1 0h7m1 0h3m3 0h1m1 0h2m2 0h4m-36 1h2m4 0h2m1 0h3m1 0h1m1 0h2m2 0h1m1 0h6m4 0h3m-35 1h1m1 0h2m2 0h1m2 0h2m1 0h1m2 0h2m1 0h1m1 0h1m2 0h2m2 0h3m5 0h1m-35 1h4m2 0h2m2 0h4m3 0h2m3 0h1m2 0h1m1 0h2m1 0h1m2 0h1m1 0h1m-36 1h1m1 0h1m1 0h3m3 0h3m2 0h1m2 0h1m1 0h3m1 0h3m2 0h2m1 0h3m-36 1h2m6 0h1m1 0h3m2 0h1m2 0h5m1 0h2m2 0h1m1 0h1m1 0h1m-31 1h1m1 0h1m1 0h2m6 0h1m2 0h1m2 0h2m1 0h4m1 0h2m1 0h2m-25 1h2m1 0h1m2 0h1m1 0h3m2 0h3m2 0h1m3 0h3m1 0h1m1 0h1m-37 1h4m1 0h3m3 0h5m1 0h4m1 0h1m1 0h1m2 0h6m1 0h1m1 0h1m-29 1h4m1 0h1m1 0h2m2 0h2m2 0h1m4 0h1m3 0h2m1 0h1m-36 1h7m1 0h1m1 0h1m3 0h1m2 0h1m2 0h1m2 0h1m1 0h2m1 0h1m1 0h1m1 0h3m-35 1h1m5 0h1m1 0h2m1 0h3m2 0h3m3 0h3m1 0h1m1 0h1m3 0h1m1 0h1m1 0h1m-37 1h1m1 0h3m1 0h1m1 0h2m2 0h1m1 0h5m5 0h1m3 0h9m-37 1h1m1 0h3m1 0h1m3 0h2m1 0h4m1 0h2m1 0h1m3 0h1m1 0h1m2 0h2m1 0h1m-34 1h1m1 0h3m1 0h1m2 0h1m3 0h1m1 0h3m2 0h1m9 0h2m1 0h3m-36 1h1m5 0h1m4 0h1m2 0h1m2 0h1m1 0h2m3 0h1m1 0h2m2 0h1m3 0h2m-36 1h7m4 0h3m2 0h4m1 0h4m2 0h1m1 0h4m1 0h3"/></g></svg>
